<svg width="21" height="16" viewBox="0 0 21 16" fill="none" xmlns="http://www.w3.org/2000/svg">
<path fill-rule="evenodd" clip-rule="evenodd" d="M6.08902 0.00162261L6.55936 0.00222626C6.63976 0.00233981 6.72107 0.00245941 6.80311 0.00258441L7.30297 0.00339408C8.39977 0.00526651 9.56801 0.00783441 10.4584 0.00968511L10.8483 0.0104832C10.9096 0.010606 10.9689 0.0107233 11.0261 0.0108344C13.2761 -0.147166 15.3071 1.52283 15.4881 3.76383C15.4898 3.78682 15.4913 3.91726 15.4925 4.15453L17.5683 2.45453C18.1723 1.95953 18.9853 1.86253 19.6903 2.19553C20.3953 2.53053 20.8333 3.22253 20.8323 4.00253L20.8203 11.3515C20.8193 12.1315 20.3803 12.8235 19.6763 13.1555C19.4003 13.2865 19.1083 13.3495 18.8183 13.3495C18.3673 13.3495 17.9223 13.1945 17.5553 12.8935L15.4971 11.1858C15.4971 11.2147 15.4971 11.2437 15.4971 11.2728C15.5391 12.3288 15.1631 13.3458 14.4371 14.1358C13.6741 14.9668 12.6221 15.4498 11.4761 15.4968C11.4567 15.4982 11.3471 15.4992 11.1674 15.4998L10.7723 15.5004C10.6182 15.5006 10.4431 15.5006 10.2514 15.5005L9.40542 15.4997C9.3292 15.4996 9.25177 15.4995 9.17327 15.4993L8.69086 15.4986C7.5415 15.4966 6.2468 15.4936 5.24304 15.4915L4.83195 15.4906C4.7017 15.4903 4.57866 15.4901 4.46411 15.4898C4.35811 15.4978 4.25211 15.5018 4.14611 15.5018C2.03211 15.5028 0.188107 13.8828 0.014107 11.7578L0.0139513 11.7557L0.013017 11.7359C0.012947 11.7337 0.0128756 11.7313 0.0128029 11.7287L0.0121163 11.6972C0.0120366 11.6927 0.011956 11.6879 0.0118744 11.6827L0.0111177 11.6245C0.0110315 11.6166 0.0109445 11.6083 0.010857 11.5995L0.010057 11.5049C0.00996701 11.4927 0.00987673 11.4798 0.00978627 11.4663L0.00924201 11.3769C0.00915118 11.3606 0.00906034 11.3436 0.0089696 11.3259L0.00815793 11.1449C0.00806858 11.1223 0.0079796 11.0989 0.00789108 11.0746L0.00710942 10.8311C0.00702451 10.8012 0.00694034 10.7703 0.00685701 10.7383L0.00613201 10.4227C0.00605451 10.3844 0.00597812 10.3449 0.00590293 10.3044L0.00506442 9.75995C0.00500034 9.70963 0.00493784 9.65802 0.00487701 9.6051L0.00410108 8.70842C0.00405923 8.64151 0.00401951 8.57312 0.00398201 8.50321L0.00396775 4.58528C0.00401062 4.46646 0.00405701 4.34565 0.00410701 4.22283C-0.043893 3.19183 0.330107 2.16783 1.06011 1.37083C1.82211 0.538834 2.87311 0.0538344 4.02011 0.00483441C4.03555 0.0037233 4.10864 0.00288379 4.22919 0.00227474L4.44435 0.00152886C4.48572 0.00143163 4.52973 0.00134753 4.57624 0.0012759L5.86434 0.00138482C5.93791 0.00145633 6.01286 0.0015358 6.08902 0.00162261ZM11.0801 1.50883C9.81755 1.507 8.27378 1.50479 6.95637 1.50336L6.26328 1.50265C6.15252 1.50255 6.0444 1.50246 5.93929 1.50237L4.20022 1.50243C4.13477 1.50272 4.09244 1.50317 4.07611 1.50383C3.33811 1.53483 2.65711 1.84783 2.16611 2.38383C1.70811 2.88483 1.47211 3.52483 1.50311 4.18883L1.50393 8.0518C1.50398 8.13707 1.50402 8.22176 1.50407 8.30576L1.50499 9.4998C1.50506 9.5741 1.50514 9.64715 1.50522 9.71885L1.50573 10.1319C1.50583 10.1978 1.50592 10.2621 1.50602 10.3247L1.50699 10.8396C1.50806 11.3032 1.5094 11.6039 1.51111 11.6618C1.62511 13.0468 2.92311 14.1058 4.40911 13.9918C4.56625 13.9921 4.72772 13.9923 4.89253 13.9926L5.39607 13.9934C5.82244 13.9941 6.26369 13.9948 6.70464 13.9956L7.23266 13.9964C7.49562 13.9969 7.75629 13.9973 8.01138 13.9977L8.51316 13.9984C8.59523 13.9986 8.67643 13.9987 8.75665 13.9988L9.2252 13.9994C9.301 13.9995 9.37558 13.9996 9.4488 13.9997L11.2142 13.9996C11.3297 13.9992 11.4023 13.9986 11.4241 13.9978C12.1591 13.9678 12.8411 13.6558 13.3321 13.1208C13.7911 12.6218 14.0271 11.9818 13.9981 11.3208L13.9972 11.3043L13.997 6.46814C13.997 6.3896 13.997 6.31206 13.9969 6.23566L13.9962 5.37982C13.9961 5.31417 13.996 5.25009 13.9959 5.18769L13.9951 4.6743C13.9947 4.52025 13.9944 4.38425 13.994 4.26929L13.9931 4.06831C13.9925 3.9542 13.9919 3.88102 13.9911 3.85583C13.8781 2.46383 12.5741 1.39183 11.0801 1.50883ZM18.5183 3.61553L15.4967 6.08083C15.4968 6.20369 15.4969 6.33141 15.497 6.46398L15.4977 8.97162L18.5063 11.7345C18.7273 11.9145 18.9493 11.8405 19.0353 11.7985C19.1213 11.7585 19.3203 11.6335 19.3203 11.3495L19.3323 4.00053C19.3333 3.71653 19.1333 3.59153 19.0473 3.55053C18.9623 3.51053 18.7373 3.43553 18.5183 3.61553Z" fill="#111111"/>
</svg>
