<svg width="30" height="30" viewBox="0 0 30 30" fill="none" xmlns="http://www.w3.org/2000/svg">
<path fill-rule="evenodd" clip-rule="evenodd" d="M25.3097 14.504C25.3083 14.5054 25.3069 14.4333 25.3076 14.3449C25.3126 14.0076 25.321 13.3076 24.6012 12.5806C23.595 11.5631 21.0508 10.3498 14.6437 10.3505C8.26704 10.3519 5.71792 11.5547 4.70393 12.5687L4.68908 12.5835C3.96924 13.3104 3.97914 14.0104 3.98268 14.3477C3.98409 14.451 3.98126 14.5302 3.97631 14.5832C3.98056 15.996 4.14744 16.8841 4.48894 17.2186C4.83898 17.5587 5.6762 17.5375 6.83373 17.5085C7.20214 17.4993 7.60236 17.4894 8.03511 17.4894C9.15517 17.488 9.3376 17.1146 9.73358 16.2887C10.2823 15.1475 11.0389 13.5848 14.643 13.5855C18.2507 13.5841 19.0052 15.1461 19.5546 16.2866C19.952 17.1111 20.133 17.4873 21.2559 17.4873C21.695 17.4866 22.1002 17.4972 22.4728 17.5064C23.6233 17.5354 24.4541 17.5573 24.802 17.2193L24.8077 17.2136C25.1464 16.8749 25.3104 15.9868 25.3104 14.4976C25.3104 14.5019 25.3104 14.5033 25.3097 14.504ZM3.64256 11.5087C5.40467 9.74659 9.10496 8.8521 14.643 8.85068C20.203 8.84998 23.9125 9.74942 25.6676 11.5256C26.8279 12.6988 26.8137 13.9079 26.8081 14.3619C26.8109 14.3887 26.8102 14.4701 26.8102 14.4983C26.8109 16.527 26.5373 17.6209 25.8494 18.2935C25.0488 19.0726 23.8955 19.0436 22.4353 19.0062C22.074 18.997 21.6816 18.9864 21.2566 18.9871C19.1918 18.9871 18.6438 17.8507 18.204 16.9386C17.7239 15.9437 17.3102 15.0845 14.643 15.0845C11.9744 15.086 11.5607 15.9451 11.0856 16.9393C10.645 17.8522 10.1006 18.9878 8.0344 18.9892C7.61579 18.9892 7.2283 18.9991 6.8705 19.0076C5.40326 19.045 4.24431 19.074 3.44232 18.2921C2.75868 17.6252 2.48079 16.527 2.48008 14.5012L3.23244 14.3569L2.48291 14.3654C2.47725 13.9114 2.46169 12.7023 3.62276 11.5285L3.64256 11.5087Z" fill="#FEFEFE"/>
</svg>
