<svg width="18" height="22" viewBox="0 0 18 22" fill="none" xmlns="http://www.w3.org/2000/svg">
<path fill-rule="evenodd" clip-rule="evenodd" d="M16.75 8.8009C17.165 8.8009 17.5 9.1369 17.5 9.5509C17.5 14.1431 13.9754 17.9235 9.5003 18.3069L9.5 20.75C9.5 21.164 9.164 21.5 8.75 21.5C8.336 21.5 8 21.164 8 20.75L8.00069 18.307C3.52514 17.924 0 14.1434 0 9.5509C0 9.1369 0.336 8.8009 0.75 8.8009C1.165 8.8009 1.5 9.1369 1.5 9.5509C1.5 13.5689 4.752 16.8389 8.75 16.8389C12.748 16.8389 16 13.5689 16 9.5509C16 9.1369 16.336 8.8009 16.75 8.8009ZM8.75 0C11.403 0 13.562 2.167 13.562 4.831V9.519C13.562 12.182 11.403 14.349 8.75 14.349C6.097 14.349 3.938 12.182 3.938 9.519V4.831C3.938 2.167 6.097 0 8.75 0ZM8.75 1.5C6.924 1.5 5.438 2.994 5.438 4.831V9.519C5.438 11.354 6.924 12.849 8.75 12.849C10.576 12.849 12.062 11.354 12.062 9.519V4.831C12.062 2.994 10.576 1.5 8.75 1.5Z" fill="#111111"/>
</svg>
