<svg width="24" height="24" viewBox="0 0 24 24" fill="none" xmlns="http://www.w3.org/2000/svg">
<path d="M17.4 22C13.3173 21.9947 9.40331 20.3705 6.5164 17.4836C3.62949 14.5967 2.00529 10.6827 2 6.59999C2 5.38 2.48464 4.20997 3.34731 3.3473C4.20998 2.48463 5.38 1.99999 6.6 1.99999C6.85834 1.99802 7.11625 2.02147 7.37 2.06999C7.61531 2.10629 7.85647 2.16658 8.09 2.24999C8.25425 2.30762 8.40061 2.40713 8.51461 2.53866C8.62861 2.6702 8.7063 2.82922 8.74 2.99999L10.11 8.99999C10.1469 9.16286 10.1425 9.33237 10.0971 9.49308C10.0516 9.65378 9.96671 9.80055 9.85 9.91999C9.72 10.06 9.71 10.07 8.48 10.71C9.46499 12.8708 11.1932 14.6062 13.35 15.6C14 14.36 14.01 14.35 14.15 14.22C14.2694 14.1033 14.4162 14.0183 14.5769 13.9729C14.7376 13.9275 14.9071 13.9231 15.07 13.96L21.07 15.33C21.2353 15.3683 21.3881 15.4481 21.5141 15.5618C21.64 15.6756 21.735 15.8195 21.79 15.98C21.8744 16.2174 21.938 16.4616 21.98 16.71C22.0202 16.9613 22.0403 17.2155 22.04 17.47C22.0216 18.6848 21.5233 19.8429 20.654 20.6916C19.7847 21.5404 18.6149 22.0107 17.4 22Z" fill="#F7B830"/>
</svg>
