<svg width="40" height="40" viewBox="0 0 40 40" fill="none" xmlns="http://www.w3.org/2000/svg">
<circle cx="20" cy="20" r="19.5" stroke="#E3E7EC"/>
<g clip-path="url(#clip0_30222_2269)">
<path d="M20 19C20.8284 19 21.5 18.3284 21.5 17.5C21.5 16.6716 20.8284 16 20 16C19.1716 16 18.5 16.6716 18.5 17.5C18.5 18.3284 19.1716 19 20 19Z" fill="#66707A"/>
<path d="M20 10C17.8921 9.99989 15.8693 10.8318 14.3712 12.3148C12.8732 13.7978 12.0211 15.8122 12 17.92C12 23.4 19.05 29.5 19.35 29.76C19.5311 29.9149 19.7616 30.0001 20 30.0001C20.2384 30.0001 20.4689 29.9149 20.65 29.76C21 29.5 28 23.4 28 17.92C27.9789 15.8122 27.1268 13.7978 25.6288 12.3148C24.1307 10.8318 22.1079 9.99989 20 10ZM20 21C19.3078 21 18.6311 20.7947 18.0555 20.4101C17.4799 20.0256 17.0313 19.4789 16.7664 18.8394C16.5015 18.1999 16.4322 17.4961 16.5673 16.8172C16.7023 16.1382 17.0356 15.5146 17.5251 15.0251C18.0146 14.5356 18.6382 14.2023 19.3172 14.0673C19.9961 13.9322 20.6999 14.0015 21.3394 14.2664C21.9789 14.5313 22.5256 14.9799 22.9101 15.5555C23.2947 16.1311 23.5 16.8078 23.5 17.5C23.5 18.4283 23.1313 19.3185 22.4749 19.9749C21.8185 20.6313 20.9283 21 20 21Z" fill="#66707A"/>
</g>
<defs>
<clipPath id="clip0_30222_2269">
<rect width="24" height="24" fill="white" transform="translate(8 8)"/>
</clipPath>
</defs>
</svg>
