<svg width="8" height="10" viewBox="0 0 8 10" fill="none" xmlns="http://www.w3.org/2000/svg">
<path d="M1.6892 0.313394C1.55066 0.310347 1.41462 0.350506 1.29998 0.428351C1.18535 0.506196 1.09781 0.617879 1.04955 0.747772C1.00129 0.877665 0.994695 1.01935 1.03069 1.15316C1.06669 1.28697 1.14348 1.40619 1.2504 1.49434L5.32983 4.98913L1.2504 8.48269C1.17644 8.53704 1.1145 8.60605 1.06846 8.68546C1.02242 8.76486 0.99327 8.85294 0.982837 8.94413C0.972404 9.03532 0.980912 9.12766 1.00783 9.21542C1.03474 9.30317 1.07949 9.38444 1.13926 9.4541C1.19903 9.52375 1.27254 9.58026 1.35518 9.62019C1.43783 9.66012 1.52783 9.68255 1.61954 9.68609C1.71126 9.68963 1.80272 9.67424 1.8882 9.6408C1.97367 9.60735 2.05132 9.55662 2.11628 9.49177L6.78686 5.49563C6.86021 5.43304 6.91911 5.35535 6.95949 5.2678C6.99988 5.18024 7.02079 5.08494 7.02079 4.98851C7.02079 4.89209 6.99988 4.79679 6.95949 4.70923C6.91911 4.62167 6.86021 4.54391 6.78686 4.48132L2.11628 0.481332C1.9983 0.376533 1.84696 0.316953 1.6892 0.31324V0.313394Z" fill="#111111"/>
</svg>
