<svg width="24" height="24" viewBox="0 0 24 24" fill="none" xmlns="http://www.w3.org/2000/svg">
<path fill-rule="evenodd" clip-rule="evenodd" d="M11.7808 2.00049C14.3947 2.00049 16.554 3.99215 16.8202 6.53941L16.8945 6.54029C18.3445 6.54029 20.1075 7.50329 20.7025 10.2043L21.4915 16.3113C21.7745 18.2823 21.4205 19.8633 20.4375 20.9973C19.4595 22.1253 17.9115 22.7223 15.9605 22.7223H7.61253C5.46953 22.7223 3.97653 22.1973 3.04753 21.1183C2.11453 20.0363 1.80253 18.4133 2.12053 16.2953L2.89653 10.2693C3.40653 7.50629 5.27153 6.54029 6.71553 6.54029C6.84019 5.39076 7.35853 4.29719 8.18083 3.47749C9.12583 2.53849 10.4288 2.00049 11.7598 2.00049H11.7808ZM16.8945 8.04029H6.71553C6.27453 8.04029 4.80053 8.21829 4.37753 10.5023L3.60553 16.5023C3.35453 18.1853 3.54853 19.4033 4.18353 20.1403C4.81053 20.8683 5.93253 21.2223 7.61253 21.2223H15.9605C17.0085 21.2223 18.4395 21.0133 19.3035 20.0153C19.9895 19.2243 20.2255 18.0463 20.0055 16.5133L19.2265 10.4613C18.8945 8.97029 18.0185 8.04029 16.8945 8.04029ZM14.6973 10.8244C15.1113 10.8244 15.4703 11.1604 15.4703 11.5744C15.4703 11.9884 15.1573 12.3244 14.7433 12.3244H14.6973C14.2833 12.3244 13.9473 11.9884 13.9473 11.5744C13.9473 11.1604 14.2833 10.8244 14.6973 10.8244ZM8.86723 10.8244C9.28123 10.8244 9.64023 11.1604 9.64023 11.5744C9.64023 11.9884 9.32623 12.3244 8.91223 12.3244H8.86723C8.45323 12.3244 8.11723 11.9884 8.11723 11.5744C8.11723 11.1604 8.45323 10.8244 8.86723 10.8244ZM11.7778 3.50049H11.7628C10.8218 3.50049 9.90483 3.87949 9.23983 4.54049C8.69813 5.07975 8.34385 5.78868 8.22924 6.53982L15.3085 6.5401C15.0516 4.82187 13.5657 3.50049 11.7778 3.50049Z" fill="#111111"/>
</svg>
