<svg width="32" height="32" viewBox="0 0 32 32" fill="none" xmlns="http://www.w3.org/2000/svg">
<circle cx="16" cy="16" r="16" fill="white"/>
<path d="M25.4403 15.0499L16.2503 24.2399C15.1244 25.3658 13.5975 25.9983 12.0053 25.9983C10.4131 25.9983 8.88613 25.3658 7.76029 24.2399C6.63445 23.1141 6.00195 21.5871 6.00195 19.9949C6.00195 18.4027 6.63445 16.8758 7.76029 15.7499L16.9503 6.55992C17.7009 5.80936 18.7188 5.3877 19.7803 5.3877C20.8417 5.3877 21.8597 5.80936 22.6103 6.55992C23.3609 7.31048 23.7825 8.32846 23.7825 9.38992C23.7825 10.4514 23.3609 11.4694 22.6103 12.2199L13.4103 21.4099C13.035 21.7852 12.526 21.996 11.9953 21.996C11.4646 21.996 10.9556 21.7852 10.5803 21.4099C10.205 21.0346 9.99418 20.5256 9.99418 19.9949C9.99418 19.4642 10.205 18.9552 10.5803 18.5799L19.0703 10.0999" stroke="#F44849" stroke-width="1.5" stroke-linecap="round" stroke-linejoin="round"/>
</svg>
