<svg width="24" height="24" viewBox="0 0 24 24" fill="none" xmlns="http://www.w3.org/2000/svg">
<path fill-rule="evenodd" clip-rule="evenodd" d="M11.7808 2.00024C14.3947 2.00024 16.554 3.9919 16.8202 6.53917L16.8945 6.54004C18.3445 6.54004 20.1075 7.50304 20.7025 10.204L21.4915 16.311C21.7745 18.282 21.4205 19.863 20.4375 20.997C19.4595 22.125 17.9115 22.722 15.9605 22.722H7.61253C5.46953 22.722 3.97653 22.197 3.04753 21.118C2.11453 20.036 1.80253 18.413 2.12053 16.295L2.89653 10.269C3.40653 7.50604 5.27153 6.54004 6.71553 6.54004C6.84019 5.39052 7.35853 4.29695 8.18083 3.47724C9.12583 2.53824 10.4288 2.00024 11.7598 2.00024H11.7808ZM16.8945 8.04004H6.71553C6.27453 8.04004 4.80053 8.21804 4.37753 10.502L3.60553 16.502C3.35453 18.185 3.54853 19.403 4.18353 20.14C4.81053 20.868 5.93253 21.222 7.61253 21.222H15.9605C17.0085 21.222 18.4395 21.013 19.3035 20.015C19.9895 19.224 20.2255 18.046 20.0055 16.513L19.2265 10.461C18.8945 8.97004 18.0185 8.04004 16.8945 8.04004ZM14.6973 10.8241C15.1113 10.8241 15.4703 11.1601 15.4703 11.5741C15.4703 11.9881 15.1573 12.3241 14.7433 12.3241H14.6973C14.2833 12.3241 13.9473 11.9881 13.9473 11.5741C13.9473 11.1601 14.2833 10.8241 14.6973 10.8241ZM8.86723 10.8241C9.28123 10.8241 9.64023 11.1601 9.64023 11.5741C9.64023 11.9881 9.32623 12.3241 8.91223 12.3241H8.86723C8.45323 12.3241 8.11723 11.9881 8.11723 11.5741C8.11723 11.1601 8.45323 10.8241 8.86723 10.8241ZM11.7778 3.50024H11.7628C10.8218 3.50024 9.90483 3.87924 9.23983 4.54024C8.69813 5.07951 8.34385 5.78844 8.22924 6.53958L15.3085 6.53986C15.0516 4.82162 13.5657 3.50024 11.7778 3.50024Z" fill="#9CA4AB"/>
</svg>
