<svg width="24" height="24" viewBox="0 0 24 24" fill="none" xmlns="http://www.w3.org/2000/svg">
<path d="M8.28002 2.50064C8.91002 2.5198 9.52002 2.6298 10.111 2.8308H10.17C10.21 2.8498 10.24 2.8708 10.26 2.8898C10.481 2.9608 10.69 3.0408 10.89 3.1508L11.27 3.3208C11.42 3.4008 11.6 3.5498 11.7 3.6108C11.8 3.6698 11.91 3.7308 12 3.7998C13.111 2.9508 14.46 2.4908 15.85 2.50064C16.481 2.50064 17.111 2.5898 17.71 2.7908C21.401 3.9908 22.731 8.0408 21.62 11.5808C20.99 13.3898 19.96 15.0408 18.611 16.3898C16.68 18.2598 14.561 19.9198 12.28 21.3498L12.03 21.5008L11.77 21.3398C9.48102 19.9198 7.35002 18.2598 5.40102 16.3798C4.06102 15.0308 3.03002 13.3898 2.39002 11.5808C1.26002 8.0408 2.59002 3.9908 6.32102 2.7698C6.61102 2.6698 6.91002 2.5998 7.21002 2.5608H7.33002C7.61102 2.5198 7.89002 2.50064 8.17002 2.50064H8.28002ZM17.19 5.6608C16.78 5.5198 16.33 5.7408 16.18 6.1608C16.04 6.5808 16.26 7.0408 16.68 7.1898C17.321 7.4298 17.75 8.0608 17.75 8.7598V8.7908C17.731 9.0198 17.8 9.2408 17.94 9.4108C18.08 9.5808 18.29 9.6798 18.51 9.7008C18.92 9.6898 19.27 9.3608 19.3 8.9398V8.8208C19.33 7.4198 18.481 6.1508 17.19 5.6608Z" fill="#F7B830"/>
</svg>
